# xmcd
#
# Track frame offsets:
#	150
#	16061
#	30983
#	49921
#	65851
#	84246
#	100516
#	119108
#	137371
#	154860
#	172114
#	187650
#	206553
#	227866
#	246869
#	265022
#	278650
#	310780
#
# Disc length: 4158 seconds
#
# Revision: 1
# Processed by: cddbd v1.5.2PL0 Copyright (c) Steve Scherf et al.
# Submitted via: audiograbber 1.83.01
#
DISCID=ea103c12
DTITLE=Chartbusters - Country 500 Vol.1 d.28 8532-28
DYEAR=1900
DGENRE=karaoke
TTITLE0=Mark Wills - 19 Something
TTITLE1=Tracy Byrd - Ten Rounds with Jose Cuervo
TTITLE2=Rascal Flats - I Melt
TTITLE3=Terri clark - I just wanna be mad
TTITLE4=Toby Keith - Who's your daddy
TTITLE5=Willie Nelson and Toby Keith - Beer for my horses
TTITLE6=Rebecca Lynn Howard - Forgive
TTITLE7=Alan Jackson w/Jimmy Buffett - It's Five O'Clock Somewhere
TTITLE8=Brad Paisley - Celebrity
TTITLE9=Patty Loveless - Lovin all night
TTITLE10=Brian McComas - 99.9% Sure (I've Never Been Here Before)
TTITLE11=Brooks and Dunn - Red Dirt road
TTITLE12=Sherrie Austin - Streets of Heaven
TTITLE13=Darryl Worley - Have you forgotten
TTITLE14=Buddy Jewell - Help Pour out the Rain (Lacey's Song))
TTITLE15=Terri Clark - I Wanna Do It All
TTITLE16=Dierks Bentley - What Was I Thinkin'
TTITLE17=Data - Track
EXTD=
EXTT0=
EXTT1=
EXTT2=
EXTT3=
EXTT4=
EXTT5=
EXTT6=
EXTT7=
EXTT8=
EXTT9=
EXTT10=
EXTT11=
EXTT12=
EXTT13=
EXTT14=
EXTT15=
EXTT16=
EXTT17=
PLAYORDER=
